<?xml version="1.0" standalone="no"?><!DOCTYPE svg PUBLIC "-//W3C//DTD SVG 1.1//EN" "http://www.w3.org/Graphics/SVG/1.1/DTD/svg11.dtd"><svg t="1772615693555" class="icon" viewBox="0 0 1024 1024" version="1.1" xmlns="http://www.w3.org/2000/svg" p-id="11882" data-spm-anchor-id="a313x.search_index.0.i11.9a0d3a81qugJyw" xmlns:xlink="http://www.w3.org/1999/xlink" width="200" height="200"><path d="M300.294847 511.944336c0 26.927593 21.834312 48.761905 48.761904 48.761904s48.761905-21.834312 48.761905-48.761904-21.834312-48.761905-48.761905-48.761905-48.761905 21.834312-48.761904 48.761905z m0 0" fill="#ffffff" p-id="11883" data-spm-anchor-id="a313x.search_index.0.i10.9a0d3a81qugJyw" class="selected"></path><path d="M421.823875 1.196782h181.91085v27.651228H421.823875V1.196782z m0 48.024353h181.91085v27.651229H421.823875V49.221135z m0 48.024353h181.91085v27.637313H421.823875V97.245488zM120.847141 248.040009l128.626223-128.626223 19.552076 19.552076-128.640139 128.626223-19.552076-19.552076z m33.955207 33.969123l128.640139-128.640139 19.552077 19.552077-128.640139 128.626223-19.552077-19.552077z m5.469015-141.331593l55.218961-55.218961 19.552077 19.552076-55.218961 55.218961-19.552077-19.53816z m-73.37943 73.435094l54.717982-54.717982 19.552077 19.552077-54.717982 54.717982-19.552077-19.552077zM0.584475 601.466406V419.541639h27.651228v181.924767H0.584475z m96.048706 0V419.541639h27.637313v181.924767H96.633181zM48.63666 419.541639H76.287889v78.096978H48.63666v-78.096978z m0 104.537509H76.287889v77.387258H48.63666V524.079148z m0 0" p-id="11884" fill="#8a8a8a" data-spm-anchor-id="a313x.search_index.0.i13.9a0d3a81qugJyw" class=""></path><path d="M281.410741 868.446184l-128.626223-128.626223 19.552077-19.552077 128.626223 128.640139-19.552077 19.552077z m-122.628397 13.206349l19.552077-19.552076 54.717982 54.717982L213.500326 936.370515l-54.717982-54.717982z m-73.908241-73.880409l19.552077-19.552076 55.21896 55.21896-19.552076 19.552077-55.218961-55.218961z m0 0M118.815395 773.761252l19.552076-19.552076 55.218961 55.218961-19.552077 19.552076-55.21896-55.218961z m73.936073 73.94999l19.552076-19.552077 54.717982 54.717982-19.552076 19.552077-54.717982-54.717982z m0 0M418.929332 995.012829h78.096978v27.651228h-78.096978v-27.651228z m104.565341 0h77.387258v27.651228h-77.387258v-27.651228z m-104.565341-48.024353h78.096978v27.651228h-78.096978V946.988476z m104.565341 0h77.387258v27.651228h-77.387258V946.988476z m0 0M418.929332 898.978039h78.096978v27.651228h-78.096978V898.978039z m104.565341 0h77.387258v27.651228h-77.387258V898.978039z m0 0M935.78604 809.762122l-128.626223 128.626223-19.552076-19.552076 128.626223-128.626223 19.552076 19.552076z m-108.225266 1.182866l54.717982-54.717982 19.552077 19.552076-54.717982 54.717983-19.552077-19.552077z m-73.908241 73.936073l55.218961-55.218961 19.552076 19.552077-55.21896 55.218961-19.552077-19.552077z m0 0M719.683409 850.925853l55.218961-55.21896 19.538161 19.552076-55.218961 55.218961-19.552077-19.552077z m73.922157-73.90824l54.717983-54.717983 19.552076 19.552077-54.717982 54.717982-19.552077-19.552076z m0 0M974.069145 422.394434v181.91085h-27.651228V422.394434h27.651228z m20.345293 0h27.651228v77.373342h-27.651228v-77.373342z m0 103.827788h27.651228v78.096978h-27.651228v-78.096978z m0 0M898.365732 422.394434h27.651228v77.373342h-27.651228v-77.373342z m0 103.827788h27.651228v78.096978h-27.651228v-78.096978z m0 0M809.163731 87.490324l128.640139 128.640139-19.552076 19.552077-128.640139-128.626223 19.552076-19.552077z m-33.969123 33.955208l128.640139 128.626223-19.552077 19.552076-128.640139-128.640139 19.552077-19.552076z m-53.493369 53.5212l19.552077-19.552077L795.971298 210.132638l-19.552076 19.552076-54.717983-54.717982z m73.407263 73.407262l19.552076-19.552076 55.218961 55.21896-19.552077 19.552077-55.21896-55.218961z m0 0" p-id="11885" fill="#8a8a8a" data-spm-anchor-id="a313x.search_index.0.i12.9a0d3a81qugJyw" class=""></path></svg>