<svg width="1024" height="1024" xmlns="http://www.w3.org/2000/svg" data-spm-anchor-id="a313x.search_index.0.i17.9a0d3a817Y3AJ6" p-id="12374" version="1.1" class="icon" t="1772616204097">

 <g>
  <title>Layer 1</title>
  <path id="svg_2" fill="#707070" data-spm-anchor-id="a313x.search_index.0.i15.9a0d3a817Y3AJ6" p-id="12376" d="m421.82387,1.19678l181.91086,0l0,27.65123l-181.91086,0l0,-27.65123zm0,48.02435l181.91086,0l0,27.65123l-181.91086,0l0,-27.65123zm0,48.02436l181.91086,0l0,27.63731l-181.91086,0l0,-27.63731zm-300.97673,150.79452l128.62622,-128.62622l19.55208,19.55207l-128.64014,128.62622l-19.55208,-19.55207l0.01392,0zm33.95521,33.96912l128.64014,-128.64014l19.55207,19.55208l-128.64013,128.62622l-19.55208,-19.55207l0,0.01391zm5.46901,-141.33159l55.21896,-55.21896l19.55208,19.55207l-55.21896,55.21897l-19.55208,-19.53816l0,-0.01392zm-73.37943,73.43509l54.71799,-54.71798l19.55207,19.55208l-54.71798,54.71798l-19.55208,-19.55208zm-86.30746,387.35378l0,-181.92477l27.65123,0l0,181.92477l-27.65122,0l-0.00001,0zm96.04871,0l0,-181.92477l27.63731,0l0,181.92477l-27.63731,0zm-47.99652,-181.92477l27.65123,0l0,78.09698l-27.65123,0l0,-78.09698zm0,104.53751l27.65123,0l0,77.38726l-27.65123,0l0,-77.38726zm0,0"/>
  <path id="svg_3" fill="#707070" data-spm-anchor-id="a313x.search_index.0.i14.9a0d3a817Y3AJ6" p-id="12377" d="m281.41074,868.44618l-128.62622,-128.62622l19.55207,-19.55208l128.62623,128.64014l-19.55208,19.55208l0,-0.01392zm-122.6284,13.20635l19.55208,-19.55207l54.71798,54.71798l-19.55207,19.55207l-54.71799,-54.71798zm-73.90824,-73.88041l19.55208,-19.55207l55.21896,55.21896l-19.55208,19.55208l-55.21896,-55.21897zm0,0m33.94129,-34.01087l19.55208,-19.55207l55.21896,55.21896l-19.55207,19.55207l-55.21897,-55.21896zm73.93608,73.94999l19.55207,-19.55208l54.71799,54.71799l-19.55208,19.55207l-54.71798,-54.71798zm0,0m226.17786,147.30159l78.09698,0l0,27.65123l-78.09698,0l0,-27.65123zm104.56534,0l77.38726,0l0,27.65123l-77.38726,0l0,-27.65123zm-104.56534,-48.02435l78.09698,0l0,27.65122l-78.09698,0l0,-27.65122zm104.56534,0l77.38726,0l0,27.65122l-77.38726,0l0,-27.65122zm0,0m-104.56534,-48.01044l78.09698,0l0,27.65123l-78.09698,0l0,-27.65123zm104.56534,0l77.38726,0l0,27.65123l-77.38726,0l0,-27.65123zm0,0m412.29137,-89.21592l-128.62622,128.62622l-19.55208,-19.55207l128.62622,-128.62622l19.55208,19.55207zm-108.22527,1.18287l54.71799,-54.71798l19.55207,19.55207l-54.71798,54.71799l-19.55208,-19.55208zm-73.90824,73.93607l55.21896,-55.21896l19.55208,19.55208l-55.21896,55.21896l-19.55208,-19.55208zm0,0m-33.96912,-33.95521l55.21896,-55.21896l19.53816,19.55208l-55.21896,55.21896l-19.55208,-19.55208l0.01392,0zm73.92216,-73.90824l54.71798,-54.71798l19.55207,19.55208l-54.71798,54.71798l-19.55207,-19.55208zm0,0m180.46358,-354.62318l0,181.91085l-27.65123,0l0,-181.91085l27.65123,0zm20.34529,0l27.65123,0l0,77.37335l-27.65123,0l0,-77.37335zm0,103.82779l27.65123,0l0,78.09698l-27.65123,0l0,-78.09698zm0,0m-96.04871,-103.82779l27.65123,0l0,77.37335l-27.65123,0l0,-77.37335zm0,103.82779l27.65123,0l0,78.09698l-27.65123,0l0,-78.09698zm0,0m-89.202,-438.7319l128.64014,128.64014l-19.55208,19.55208l-128.64013,-128.62622l19.55207,-19.55208l0,-0.01392zm-33.96912,33.95521l128.64014,128.62622l-19.55208,19.55208l-128.64014,-128.64014l19.55208,-19.55207l0,0.01391zm-53.49337,53.5212l19.55208,-19.55208l54.71798,54.71799l-19.55208,19.55207l-54.71798,-54.71798zm73.40726,73.40726l19.55208,-19.55207l55.21896,55.21896l-19.55208,19.55207l-55.21896,-55.21896zm0,0"/>
 </g>
</svg>